<svg width="16" height="16" viewBox="0 0 16 16" fill="none" xmlns="http://www.w3.org/2000/svg">
<g id="Close_Circle">
<path id="Subtract" fill-rule="evenodd" clip-rule="evenodd" d="M8.00008 13.3337C5.05456 13.3337 2.66675 10.9458 2.66675 8.00033C2.66675 5.05481 5.05456 2.66699 8.00008 2.66699C10.9456 2.66699 13.3334 5.05481 13.3334 8.00033C13.3334 10.9458 10.9456 13.3337 8.00008 13.3337Z" fill="#C1C4CD"/>
<path id="Subtract_2" fill-rule="evenodd" clip-rule="evenodd" d="M5.43089 5.43064C5.56107 5.30046 5.77212 5.30046 5.9023 5.43064L7.99995 7.52829L10.0976 5.43069C10.2277 5.30051 10.4388 5.30051 10.569 5.43069C10.6991 5.56086 10.6991 5.77192 10.569 5.90209L8.47135 7.99969L10.569 10.0973C10.6991 10.2275 10.6991 10.4385 10.569 10.5687C10.4388 10.6989 10.2277 10.6989 10.0976 10.5687L7.99995 8.4711L5.90229 10.5688C5.77211 10.6989 5.56106 10.6989 5.43088 10.5688C5.30071 10.4386 5.30071 10.2275 5.43088 10.0974L7.52854 7.99969L5.43089 5.90204C5.30072 5.77187 5.30072 5.56081 5.43089 5.43064Z" fill="white"/>
</g>
</svg>
