<svg width="24" height="24" viewBox="0 0 24 24" fill="none" xmlns="http://www.w3.org/2000/svg">
<path fill-rule="evenodd" clip-rule="evenodd" d="M6.5 5C6.5 3.61929 7.61929 2.5 9 2.5H15C16.3807 2.5 17.5 3.61929 17.5 5C17.5 5.27614 17.7239 5.5 18 5.5H20C21.3807 5.5 22.5 6.61929 22.5 8V19C22.5 20.3807 21.3807 21.5 20 21.5H4C2.61929 21.5 1.5 20.3807 1.5 19V8C1.5 6.61929 2.61929 5.5 4 5.5H6C6.27614 5.5 6.5 5.27614 6.5 5ZM9 3.5C8.17157 3.5 7.5 4.17157 7.5 5C7.5 5.82843 6.82843 6.5 6 6.5H4C3.17157 6.5 2.5 7.17157 2.5 8V19C2.5 19.8284 3.17157 20.5 4 20.5H20C20.8284 20.5 21.5 19.8284 21.5 19V8C21.5 7.17157 20.8284 6.5 20 6.5H18C17.1716 6.5 16.5 5.82843 16.5 5C16.5 4.17157 15.8284 3.5 15 3.5H9Z" fill="#121316"/>
<path fill-rule="evenodd" clip-rule="evenodd" d="M12 8.5C9.51472 8.5 7.5 10.5147 7.5 13C7.5 15.4853 9.51472 17.5 12 17.5C14.4853 17.5 16.5 15.4853 16.5 13C16.5 10.5147 14.4853 8.5 12 8.5ZM6.5 13C6.5 9.96243 8.96243 7.5 12 7.5C15.0376 7.5 17.5 9.96243 17.5 13C17.5 16.0376 15.0376 18.5 12 18.5C8.96243 18.5 6.5 16.0376 6.5 13Z" fill="#121316"/>
</svg>
