<svg width="40" height="75" viewBox="0 0 40 75" fill="none" xmlns="http://www.w3.org/2000/svg">
<path d="M36.73 30.9681C38.14 28.4771 40 24.0552 40 20.0085C40 8.95879 31.045 0 20 0C8.955 0 0 8.95879 0 20.0085C0 24.0552 1.865 28.4821 3.27 30.9681C5.79917 35.4395 12.6388 45.4681 16.7475 51.4147C18.3243 53.6968 21.6757 53.6968 23.2525 51.4147C27.3612 45.4681 34.2008 35.4395 36.73 30.9681Z" fill="#DDDFE3"/>
<path d="M19.6406 20.3125C23.3081 20.3125 26.2812 17.3394 26.2812 13.6719C26.2812 10.0044 23.3081 7.03125 19.6406 7.03125C15.9731 7.03125 13 10.0044 13 13.6719C13 17.3394 15.9731 20.3125 19.6406 20.3125Z" fill="#F9FAFA"/>
<path d="M19.6406 74.2812C23.3081 74.2812 26.2812 71.3081 26.2812 67.6406C26.2812 63.9731 23.3081 61 19.6406 61C15.9731 61 13 63.9731 13 67.6406C13 71.3081 15.9731 74.2812 19.6406 74.2812Z" fill="#DDDFE3"/>
</svg>
