<svg width="52" height="52" viewBox="0 0 52 52" fill="none" xmlns="http://www.w3.org/2000/svg">
<g filter="url(#filter0_d_3227_21633)">
<rect x="4" y="4" width="44" height="44" rx="22" fill="#F9FAFA"/>
<rect x="5" y="5" width="42" height="42" rx="21" stroke="white" stroke-width="2"/>
<path fill-rule="evenodd" clip-rule="evenodd" d="M16.0123 26.5C16.2728 31.7906 20.6448 36 26 36C31.5228 36 36 31.5228 36 26C36 20.4772 31.5228 16 26 16C20.6448 16 16.2728 20.2094 16.0123 25.5H16V26.5H16.0123ZM17.0137 26.5H21V25.5H17.0137C17.264 20.9275 20.9275 17.264 25.5 17.0137V22H26.5V17.0137C31.0725 17.264 34.736 20.9275 34.9863 25.5H30V26.5H34.9863C34.736 31.0725 31.0725 34.736 26.5 34.9863V30H25.5V34.9863C20.9275 34.736 17.264 31.0725 17.0137 26.5Z" fill="#121316"/>
</g>
<defs>
<filter id="filter0_d_3227_21633" x="0" y="0" width="52" height="52" filterUnits="userSpaceOnUse" color-interpolation-filters="sRGB">
<feFlood flood-opacity="0" result="BackgroundImageFix"/>
<feColorMatrix in="SourceAlpha" type="matrix" values="0 0 0 0 0 0 0 0 0 0 0 0 0 0 0 0 0 0 127 0" result="hardAlpha"/>
<feOffset/>
<feGaussianBlur stdDeviation="2"/>
<feComposite in2="hardAlpha" operator="out"/>
<feColorMatrix type="matrix" values="0 0 0 0 0 0 0 0 0 0 0 0 0 0 0 0 0 0 0.25 0"/>
<feBlend mode="darken" in2="BackgroundImageFix" result="effect1_dropShadow_3227_21633"/>
<feBlend mode="normal" in="SourceGraphic" in2="effect1_dropShadow_3227_21633" result="shape"/>
</filter>
</defs>
</svg>
