<svg width="24" height="24" viewBox="0 0 24 24" fill="none" xmlns="http://www.w3.org/2000/svg">
<path fill-rule="evenodd" clip-rule="evenodd" d="M2.01228 12.5C2.2728 17.7906 6.64482 22 12 22C17.5228 22 22 17.5228 22 12C22 6.47715 17.5228 2 12 2C6.64482 2 2.2728 6.20944 2.01228 11.5H2V12.5H2.01228ZM3.01365 12.5H7V11.5H3.01365C3.26403 6.92752 6.92752 3.26403 11.5 3.01365V8H12.5V3.01365C17.0725 3.26403 20.736 6.92752 20.9863 11.5H16V12.5H20.9863C20.736 17.0725 17.0725 20.736 12.5 20.9863V16H11.5V20.9863C6.92752 20.736 3.26403 17.0725 3.01365 12.5Z" fill="#121316"/>
</svg>
