<svg width="56" height="56" viewBox="0 0 56 56" fill="none" xmlns="http://www.w3.org/2000/svg">
<g id="Github login SVG" clip-path="url(#clip0_1191_6429)">
<circle id="Ellipse 37" cx="28" cy="28" r="28" fill="white"/>
<path id="Vector" d="M28 0C12.537 0 0 12.7333 0 28.4384C0 41.7642 9.03467 52.9144 21.2147 56C21.084 55.6161 21 55.1706 21 54.6184V49.7578C19.8637 49.7578 17.9597 49.7578 17.4813 49.7578C15.5657 49.7578 13.8623 48.9212 13.0363 47.3666C12.1193 45.6389 11.9607 42.9965 9.688 41.3803C9.01367 40.8423 9.527 40.2285 10.304 40.3115C11.739 40.7238 12.929 41.7239 14.049 43.2075C15.1643 44.6934 15.6893 45.0299 17.773 45.0299C18.7833 45.0299 20.2953 44.9706 21.7187 44.7431C22.484 42.769 23.807 40.9513 25.424 40.0934C16.1 39.1194 11.6503 34.4081 11.6503 28.0119C11.6503 25.2581 12.8053 22.5943 14.7677 20.3501C14.1237 18.1224 13.314 13.5793 15.015 11.8493C19.2103 11.8493 21.7467 14.6126 22.3557 15.3591C24.4463 14.6316 26.7423 14.2192 29.155 14.2192C31.5723 14.2192 33.8777 14.6316 35.973 15.3639C36.575 14.6221 39.1137 11.8493 43.3183 11.8493C45.0263 13.5817 44.2073 18.1437 43.5563 20.3667C45.507 22.6062 46.655 25.2628 46.655 28.0119C46.655 34.4034 42.2123 39.1123 32.9023 40.0911C35.4643 41.449 37.3333 45.2645 37.3333 48.1391V54.6184C37.3333 54.8648 37.2797 55.0426 37.2517 55.2535C48.1623 51.3693 56 40.8471 56 28.4384C56 12.7333 43.463 0 28 0Z" fill="black"/>
</g>
<defs>
<clipPath id="clip0_1191_6429">
<rect width="56" height="56" fill="white"/>
</clipPath>
</defs>
</svg>
