<svg width="56" height="56" viewBox="0 0 56 56" fill="none" xmlns="http://www.w3.org/2000/svg">
<g id="Google login svg" clip-path="url(#clip0_1191_6423)">
<circle id="Ellipse 37" cx="28" cy="28" r="28" fill="white"/>
<path id="Vector" d="M50.8795 23.43H49V23.3332H28V32.6665H41.1868C39.263 38.0997 34.0935 41.9998 28 41.9998C20.2685 41.9998 14 35.7313 14 27.9998C14 20.2683 20.2685 13.9998 28 13.9998C31.5688 13.9998 34.8156 15.3462 37.2878 17.5453L43.8876 10.9455C39.7203 7.06167 34.146 4.6665 28 4.6665C15.1141 4.6665 4.66663 15.114 4.66663 27.9998C4.66663 40.8857 15.1141 51.3332 28 51.3332C40.8858 51.3332 51.3333 40.8857 51.3333 27.9998C51.3333 26.4353 51.1723 24.9082 50.8795 23.43Z" fill="#FFC107"/>
<path id="Vector_2" d="M7.35657 17.1393L15.0227 22.7615C17.0971 17.6258 22.1207 13.9998 27.9996 13.9998C31.5684 13.9998 34.8152 15.3462 37.2874 17.5453L43.8872 10.9455C39.7199 7.06167 34.1456 4.6665 27.9996 4.6665C19.0372 4.6665 11.2649 9.72634 7.35657 17.1393Z" fill="#FF3D00"/>
<path id="Vector_3" d="M28.0003 51.3341C34.0273 51.3341 39.5037 49.0276 43.6442 45.2768L36.4225 39.1658C34.0798 40.9403 31.1678 42.0008 28.0003 42.0008C21.9313 42.0008 16.7782 38.131 14.8368 32.7305L7.22784 38.593C11.0895 46.1495 18.9318 51.3341 28.0003 51.3341Z" fill="#4CAF50"/>
<path id="Vector_4" d="M50.8795 23.4303H49V23.3335H28V32.6668H41.1868C40.2628 35.2767 38.584 37.5272 36.4187 39.1663L36.4222 39.164L43.6438 45.275C43.1328 45.7393 51.3333 39.6668 51.3333 28.0002C51.3333 26.4357 51.1723 24.9085 50.8795 23.4303Z" fill="#1976D2"/>
</g>
<defs>
<clipPath id="clip0_1191_6423">
<rect width="56" height="56" fill="white"/>
</clipPath>
</defs>
</svg>
