<svg width="24" height="24" viewBox="0 0 24 24" fill="none" xmlns="http://www.w3.org/2000/svg">
<g id="Hide">
<g id="Vector">
<path fill-rule="evenodd" clip-rule="evenodd" d="M8.12075 10.8451C8.39412 10.8841 8.58407 11.1374 8.54502 11.4107C8.51752 11.6032 8.50004 11.799 8.50004 12C8.50004 13.9339 10.0662 15.5 12 15.5C12.6212 15.5 13.2162 15.3337 13.7228 15.0455C13.9628 14.9089 14.2681 14.9928 14.4046 15.2328C14.5412 15.4728 14.4573 15.7781 14.2173 15.9146C13.5638 16.2864 12.7989 16.5 12 16.5C9.5139 16.5 7.50004 14.4862 7.50004 12C7.50004 11.7411 7.52257 11.4968 7.55507 11.2693C7.59412 10.996 7.84739 10.806 8.12075 10.8451Z" fill="#6E7387"/>
<path fill-rule="evenodd" clip-rule="evenodd" d="M12 8.49995C11.3459 8.49995 10.7421 8.68259 10.212 8.99184C9.97344 9.13098 9.66728 9.05041 9.52814 8.81189C9.389 8.57336 9.46957 8.2672 9.7081 8.12806C10.378 7.73732 11.1542 7.49995 12 7.49995C14.4862 7.49995 16.5 9.51381 16.5 12C16.5 12.2072 16.4892 12.4164 16.4532 12.6322C16.4078 12.9045 16.1502 13.0885 15.8778 13.0431C15.6054 12.9978 15.4214 12.7401 15.4668 12.4678C15.4909 12.3235 15.5 12.1727 15.5 12C15.5 10.0661 13.9339 8.49995 12 8.49995Z" fill="#6E7387"/>
<path fill-rule="evenodd" clip-rule="evenodd" d="M4.66848 8.38192C4.85515 8.58541 4.84152 8.9017 4.63803 9.08837C3.4894 10.1421 2.87528 11.2511 2.62599 11.8051L2.62403 11.8095C2.56542 11.9365 2.56537 12.0732 2.62392 12.2002C3.20022 13.4456 5.54182 17.4999 12 17.4999C13.7224 17.4999 15.1429 17.2099 16.3149 16.7716C16.5735 16.6749 16.8616 16.8061 16.9584 17.0648C17.0551 17.3234 16.9238 17.6115 16.6652 17.7082C15.3771 18.1899 13.8376 18.4999 12 18.4999C4.99866 18.4999 2.38015 14.0548 1.71625 12.6199C1.53525 12.2277 1.53469 11.7851 1.71497 11.3927C2.0062 10.7462 2.69198 9.51656 3.96203 8.35147C4.16552 8.1648 4.48181 8.17843 4.66848 8.38192Z" fill="#6E7387"/>
<path fill-rule="evenodd" clip-rule="evenodd" d="M12.0001 6.49995C10.2777 6.49995 8.85716 6.78998 7.6852 7.22827C7.42655 7.325 7.13846 7.19374 7.04173 6.9351C6.945 6.67645 7.07626 6.38836 7.33491 6.29163C8.62295 5.80992 10.1624 5.49995 12.0001 5.49995C19.0014 5.49995 21.6199 9.94512 22.2838 11.38C22.4651 11.7727 22.4654 12.216 22.2844 12.6087C21.9947 13.2415 21.3307 14.4395 20.0926 15.6041C19.8915 15.7933 19.5751 15.7837 19.3859 15.5825C19.1967 15.3814 19.2063 15.065 19.4075 14.8758C20.5289 13.8209 21.1249 12.7394 21.3754 12.1919L21.3761 12.1904C21.4347 12.0634 21.4347 11.9265 21.3761 11.7995C20.8 10.5544 18.4587 6.49995 12.0001 6.49995Z" fill="#6E7387"/>
<path fill-rule="evenodd" clip-rule="evenodd" d="M1.59043 4.71322C1.74878 4.487 2.06055 4.43198 2.28677 4.59034L22.2868 18.5903C22.513 18.7487 22.568 19.0605 22.4097 19.2867C22.2513 19.5129 21.9395 19.5679 21.7133 19.4096L1.71331 5.40957C1.48709 5.25121 1.43207 4.93944 1.59043 4.71322Z" fill="#6E7387"/>
</g>
</g>
</svg>
