<svg width="56" height="56" viewBox="0 0 56 56" fill="none" xmlns="http://www.w3.org/2000/svg">
<g id="kakao login svg">
<circle id="Ellipse 36" cx="28" cy="28" r="28" fill="#FEE500"/>
<path id="Vector" d="M28.1244 14.1865C31.0494 14.1865 33.7548 14.7554 36.2404 15.8932C38.726 17.0309 40.6911 18.5781 42.1355 20.5345C43.58 22.4909 44.3022 24.625 44.3022 26.9367C44.3022 29.2483 43.58 31.3853 42.1355 33.3479C40.6911 35.3103 38.7291 36.8605 36.2494 37.9982C33.7698 39.1359 31.0615 39.7049 28.1244 39.7049C27.1976 39.7049 26.2406 39.6386 25.2536 39.5062C20.9684 42.48 18.6874 43.985 18.4106 44.0211C18.2781 44.0693 18.1517 44.0632 18.0314 44.0031C17.9832 43.9669 17.9471 43.9187 17.923 43.8585C17.8989 43.7983 17.8869 43.7442 17.8869 43.696V43.6238C17.9592 43.1542 18.5068 41.1978 19.53 37.7544C17.2068 36.5986 15.3622 35.0665 13.996 33.1582C12.6298 31.2499 11.9467 29.1761 11.9467 26.9367C11.9467 24.625 12.6689 22.4909 14.1133 20.5345C15.5578 18.5781 17.5228 17.0309 20.0085 15.8932C22.4941 14.7554 25.1994 14.1865 28.1244 14.1865Z" fill="black"/>
</g>
</svg>
