<svg width="44" height="20" viewBox="0 0 44 20" fill="none" xmlns="http://www.w3.org/2000/svg">
<path d="M0.445312 15V0.859375H2.59375V13.1445H8.98047V15H0.445312ZM15.5039 15.2148C12.4961 15.2148 10.543 13.0273 10.543 9.74609C10.543 6.44531 12.4961 4.25781 15.5039 4.25781C18.4922 4.25781 20.4453 6.44531 20.4453 9.74609C20.4453 13.0273 18.4922 15.2148 15.5039 15.2148ZM15.5039 13.4766C17.418 13.4766 18.3359 11.7773 18.3359 9.74609C18.3359 7.71484 17.418 5.97656 15.5039 5.97656C13.5508 5.97656 12.6328 7.71484 12.6328 9.74609C12.6328 11.7773 13.5508 13.4766 15.5039 13.4766ZM26.9492 19.1992C24.2734 19.1992 22.5156 18.0078 22.3203 16.0352H24.4492C24.6445 17.0312 25.582 17.5195 26.9688 17.5195C28.6289 17.5195 29.6836 16.8164 29.6836 15.1562V13.0664H29.5469C29.1758 13.75 28.4141 14.8438 26.4609 14.8438C23.9609 14.8438 22.0273 12.9688 22.0273 9.58984C22.0273 6.21094 23.9219 4.25781 26.4805 4.25781C28.4531 4.25781 29.1758 5.44922 29.5664 6.11328H29.7031V4.39453H31.7344V15.2344C31.7344 17.9492 29.6836 19.1992 26.9492 19.1992ZM26.9297 13.125C28.707 13.125 29.7031 11.8164 29.7031 9.62891C29.7031 7.48047 28.7266 6.03516 26.9297 6.03516C25.0742 6.03516 24.1562 7.59766 24.1562 9.62891C24.1562 11.6992 25.1133 13.125 26.9297 13.125ZM38.7656 15.2148C35.7578 15.2148 33.8047 13.0273 33.8047 9.74609C33.8047 6.44531 35.7578 4.25781 38.7656 4.25781C41.7539 4.25781 43.707 6.44531 43.707 9.74609C43.707 13.0273 41.7539 15.2148 38.7656 15.2148ZM38.7656 13.4766C40.6797 13.4766 41.5977 11.7773 41.5977 9.74609C41.5977 7.71484 40.6797 5.97656 38.7656 5.97656C36.8125 5.97656 35.8945 7.71484 35.8945 9.74609C35.8945 11.7773 36.8125 13.4766 38.7656 13.4766Z" fill="white"/>
</svg>
