<svg width="41" height="75" viewBox="0 0 41 75" fill="none" xmlns="http://www.w3.org/2000/svg">
<path d="M37.23 31.3275C38.64 28.8364 40.5 24.4146 40.5 20.3678C40.5 9.31817 31.545 0.359375 20.5 0.359375C9.455 0.359375 0.5 9.31817 0.5 20.3678C0.5 24.4146 2.365 28.8414 3.77 31.3275C6.29917 35.7988 13.1388 45.8274 17.2475 51.7741C18.8243 54.0562 22.1757 54.0562 23.7525 51.7741C27.8612 45.8274 34.7008 35.7988 37.23 31.3275Z" fill="#009E6C"/>
<path d="M20.1406 20.6719C23.8081 20.6719 26.7812 17.6988 26.7812 14.0312C26.7812 10.3637 23.8081 7.39062 20.1406 7.39062C16.4731 7.39062 13.5 10.3637 13.5 14.0312C13.5 17.6988 16.4731 20.6719 20.1406 20.6719Z" fill="white"/>
<path d="M20.1406 74.6406C23.8081 74.6406 26.7812 71.6675 26.7812 68C26.7812 64.3325 23.8081 61.3594 20.1406 61.3594C16.4731 61.3594 13.5 64.3325 13.5 68C13.5 71.6675 16.4731 74.6406 20.1406 74.6406Z" fill="#009E6C"/>
</svg>
