<svg width="40" height="40" viewBox="0 0 40 40" fill="none" xmlns="http://www.w3.org/2000/svg">
<rect width="40" height="40" rx="20" fill="#DCF4EC"/>
<path fill-rule="evenodd" clip-rule="evenodd" d="M24 13.5C22.6193 13.5 21.5 14.6193 21.5 16C21.5 17.3807 22.6193 18.5 24 18.5C25.3807 18.5 26.5 17.3807 26.5 16C26.5 14.6193 25.3807 13.5 24 13.5ZM22.5 16C22.5 15.1716 23.1716 14.5 24 14.5C24.8284 14.5 25.5 15.1716 25.5 16C25.5 16.8284 24.8284 17.5 24 17.5C23.1716 17.5 22.5 16.8284 22.5 16Z" fill="#009E6C"/>
<path fill-rule="evenodd" clip-rule="evenodd" d="M9.5 12C9.5 10.6193 10.6193 9.5 12 9.5H28C29.3807 9.5 30.5 10.6193 30.5 12V28C30.5 29.3807 29.3807 30.5 28 30.5H12C10.6193 30.5 9.5 29.3807 9.5 28V12ZM12 10.5C11.1716 10.5 10.5 11.1716 10.5 12V24.3675L15.3729 17.1585C15.968 16.2815 17.2607 16.2807 17.8558 17.1577L22.4944 23.9936C22.6851 24.2745 23.0944 24.2878 23.3028 24.0198L24.9306 21.927C25.5311 21.1549 26.6981 21.1549 27.2986 21.927L29.5 24.7573V12C29.5 11.1716 28.8284 10.5 28 10.5H12ZM10.5 28V26.1531L16.2008 17.7193C16.3993 17.4273 16.83 17.427 17.0283 17.7192L21.6669 24.5551C22.2389 25.398 23.4668 25.4378 24.0922 24.6337L25.7199 22.5409C25.9201 22.2835 26.3091 22.2835 26.5093 22.5409L29.5 26.3861V28C29.5 28.8284 28.8284 29.5 28 29.5H12C11.1716 29.5 10.5 28.8284 10.5 28Z" fill="#009E6C"/>
</svg>
