<svg width="52" height="52" viewBox="0 0 52 52" fill="none" xmlns="http://www.w3.org/2000/svg">
<g filter="url(#filter0_d_1435_9074)">
<rect x="4" y="4" width="44" height="44" rx="22" fill="#F9FAFA"/>
<rect x="5" y="5" width="42" height="42" rx="21" stroke="white" stroke-width="2"/>
<path fill-rule="evenodd" clip-rule="evenodd" d="M26.5 27.9795C29.5798 27.7254 32 25.1453 32 22C32 18.6863 29.3137 16 26 16C22.6863 16 20 18.6863 20 22C20 25.1453 22.4202 27.7254 25.5 27.9795V34.1338C25.2011 34.3067 25 34.6299 25 35C25 35.5523 25.4477 36 26 36C26.5523 36 27 35.5523 27 35C27 34.6299 26.7989 34.3067 26.5 34.1338V27.9795ZM26 24C27.1046 24 28 23.1046 28 22C28 20.8954 27.1046 20 26 20C24.8954 20 24 20.8954 24 22C24 23.1046 24.8954 24 26 24Z" fill="#121316"/>
</g>
<defs>
<filter id="filter0_d_1435_9074" x="0" y="0" width="52" height="52" filterUnits="userSpaceOnUse" color-interpolation-filters="sRGB">
<feFlood flood-opacity="0" result="BackgroundImageFix"/>
<feColorMatrix in="SourceAlpha" type="matrix" values="0 0 0 0 0 0 0 0 0 0 0 0 0 0 0 0 0 0 127 0" result="hardAlpha"/>
<feOffset/>
<feGaussianBlur stdDeviation="2"/>
<feComposite in2="hardAlpha" operator="out"/>
<feColorMatrix type="matrix" values="0 0 0 0 0 0 0 0 0 0 0 0 0 0 0 0 0 0 0.25 0"/>
<feBlend mode="darken" in2="BackgroundImageFix" result="effect1_dropShadow_1435_9074"/>
<feBlend mode="normal" in="SourceGraphic" in2="effect1_dropShadow_1435_9074" result="shape"/>
</filter>
</defs>
</svg>
