<svg width="52" height="52" viewBox="0 0 52 52" fill="none" xmlns="http://www.w3.org/2000/svg">
<g filter="url(#filter0_d_1435_9072)">
<rect x="4" y="4" width="44" height="44" rx="22" fill="#F9FAFA"/>
<rect x="5" y="5" width="42" height="42" rx="21" stroke="white" stroke-width="2"/>
<path fill-rule="evenodd" clip-rule="evenodd" d="M22.9585 19.5H22.9585C22.9858 19.6626 23 19.8296 23 20C23 20.1704 22.9858 20.3374 22.9585 20.5H22.9585C22.7205 21.9189 21.4865 23 20 23C18.3431 23 17 21.6569 17 20C17 18.3431 18.3431 17 20 17C21.4865 17 22.7205 18.0811 22.9585 19.5ZM23.9691 19.5C23.723 17.5268 22.0398 16 20 16C17.7909 16 16 17.7909 16 20C16 22.2091 17.7909 24 20 24C22.0398 24 23.723 22.4732 23.9691 20.5H28.0309C28.122 21.2304 28.41 21.8996 28.8401 22.4528L22.4528 28.8401C21.7755 28.3135 20.9244 28 20 28C17.7909 28 16 29.7909 16 32C16 34.2091 17.7909 36 20 36C22.0398 36 23.723 34.4732 23.9691 32.5H28.0309C28.277 34.4732 29.9602 36 32 36C34.2091 36 36 34.2091 36 32C36 29.7909 34.2091 28 32 28C29.9602 28 28.277 29.5268 28.0309 31.5H23.9691C23.878 30.7697 23.59 30.1005 23.1599 29.5472L29.5472 23.1599C30.2245 23.6865 31.0757 24 32 24C34.2091 24 36 22.2091 36 20C36 17.7909 34.2091 16 32 16C29.9602 16 28.277 17.5268 28.0309 19.5H23.9691ZM21.7383 29.5546L21.7383 29.5547C22.0115 29.7493 22.2508 29.9885 22.4454 30.2618L22.4454 30.2618C22.7028 30.6232 22.882 31.0442 22.9585 31.5H22.9585C22.9858 31.6626 23 31.8296 23 32C23 32.1704 22.9858 32.3374 22.9585 32.5H22.9585C22.7205 33.9189 21.4865 35 20 35C18.3431 35 17 33.6569 17 32C17 30.3431 18.3431 29 20 29C20.6479 29 21.2479 29.2054 21.7383 29.5546ZM29.0415 32.5C29.2795 33.9189 30.5135 35 32 35C33.6569 35 35 33.6569 35 32C35 30.3431 33.6569 29 32 29C30.5135 29 29.2795 30.0811 29.0415 31.5C29.0142 31.6626 29 31.8296 29 32C29 32.1683 29.0139 32.3333 29.0405 32.494C29.0408 32.496 29.0411 32.498 29.0415 32.5ZM32 23C33.6569 23 35 21.6569 35 20C35 18.3431 33.6569 17 32 17C30.3431 17 29 18.3431 29 20C29 21.6569 30.3431 23 32 23Z" fill="#121316"/>
</g>
<defs>
<filter id="filter0_d_1435_9072" x="0" y="0" width="52" height="52" filterUnits="userSpaceOnUse" color-interpolation-filters="sRGB">
<feFlood flood-opacity="0" result="BackgroundImageFix"/>
<feColorMatrix in="SourceAlpha" type="matrix" values="0 0 0 0 0 0 0 0 0 0 0 0 0 0 0 0 0 0 127 0" result="hardAlpha"/>
<feOffset/>
<feGaussianBlur stdDeviation="2"/>
<feComposite in2="hardAlpha" operator="out"/>
<feColorMatrix type="matrix" values="0 0 0 0 0 0 0 0 0 0 0 0 0 0 0 0 0 0 0.25 0"/>
<feBlend mode="darken" in2="BackgroundImageFix" result="effect1_dropShadow_1435_9072"/>
<feBlend mode="normal" in="SourceGraphic" in2="effect1_dropShadow_1435_9072" result="shape"/>
</filter>
</defs>
</svg>
