<svg width="24" height="24" viewBox="0 0 24 24" fill="#A5A9B6" xmlns="http://www.w3.org/2000/svg">
<path fill-rule="evenodd" clip-rule="evenodd" d="M12 7.5C10.6193 7.5 9.5 8.61929 9.5 10C9.5 11.3807 10.6193 12.5 12 12.5C13.3807 12.5 14.5 11.3807 14.5 10C14.5 8.61929 13.3807 7.5 12 7.5ZM8.5 10C8.5 8.067 10.067 6.5 12 6.5C13.933 6.5 15.5 8.067 15.5 10C15.5 11.933 13.933 13.5 12 13.5C10.067 13.5 8.5 11.933 8.5 10Z" fill="#A5A9B6"/>
<path fill-rule="evenodd" clip-rule="evenodd" d="M12 15.5C9.51614 15.5 7.5 17.5161 7.5 20C7.5 20.2761 7.27614 20.5 7 20.5C6.72386 20.5 6.5 20.2761 6.5 20C6.5 16.9639 8.96386 14.5 12 14.5C15.0361 14.5 17.5 16.9639 17.5 20C17.5 20.2761 17.2761 20.5 17 20.5C16.7239 20.5 16.5 20.2761 16.5 20C16.5 17.5161 14.4839 15.5 12 15.5Z" fill="#A5A9B6"/>
<path fill-rule="evenodd" clip-rule="evenodd" d="M17 4.5C16.0447 4.5 15.2176 5.0394 14.7895 5.82844C14.6578 6.07116 14.3543 6.16117 14.1115 6.02948C13.8688 5.89779 13.7788 5.59428 13.9105 5.35156C14.5024 4.2606 15.6553 3.5 17 3.5C18.9361 3.5 20.5 5.06386 20.5 7C20.5 8.93614 18.9361 10.5 17 10.5C16.7238 10.5 16.5 10.2761 16.5 10C16.5 9.72386 16.7238 9.5 17 9.5C18.3838 9.5 19.5 8.38386 19.5 7C19.5 5.61614 18.3838 4.5 17 4.5Z" fill="#A5A9B6"/>
<path fill-rule="evenodd" clip-rule="evenodd" d="M17 12.5C16.8705 12.5 16.7477 12.5086 16.6056 12.5187C16.3302 12.5384 16.091 12.3311 16.0713 12.0556C16.0516 11.7802 16.2589 11.5409 16.5344 11.5213L16.5407 11.5208C16.6771 11.5111 16.8321 11.5 17 11.5C20.0361 11.5 22.5 13.9639 22.5 17C22.5 17.2761 22.2761 17.5 22 17.5C21.7239 17.5 21.5 17.2761 21.5 17C21.5 14.5161 19.4839 12.5 17 12.5Z" fill="#A5A9B6"/>
<path fill-rule="evenodd" clip-rule="evenodd" d="M7 4.5C5.61614 4.5 4.5 5.61614 4.5 7C4.5 8.38386 5.61614 9.5 7 9.5C7.27614 9.5 7.5 9.72386 7.5 10C7.5 10.2761 7.27614 10.5 7 10.5C5.06386 10.5 3.5 8.93614 3.5 7C3.5 5.06386 5.06386 3.5 7 3.5C8.34233 3.5 9.49735 4.24856 10.0905 5.3535C10.2211 5.5968 10.1298 5.89992 9.8865 6.03053C9.6432 6.16115 9.34008 6.0698 9.20947 5.8265C8.78265 5.03144 7.95767 4.5 7 4.5Z" fill="#A5A9B6"/>
<path fill-rule="evenodd" clip-rule="evenodd" d="M7.35929 12.515C7.26065 12.5009 7.14697 12.5 7 12.5C4.51614 12.5 2.5 14.5161 2.5 17C2.5 17.2761 2.27614 17.5 2 17.5C1.72386 17.5 1.5 17.2761 1.5 17C1.5 13.9639 3.96386 11.5 7 11.5L7.01273 11.5C7.14477 11.5 7.32507 11.4999 7.50071 11.525C7.77408 11.5641 7.96403 11.8173 7.92497 12.0907C7.88592 12.3641 7.63266 12.554 7.35929 12.515Z" fill="#A5A9B6"/>
</svg>
