<svg width="24" height="24" viewBox="0 0 24 24" fill="none" xmlns="http://www.w3.org/2000/svg">
<path fill-rule="evenodd" clip-rule="evenodd" d="M12 2.5C9.51472 2.5 7.5 4.51472 7.5 7C7.5 9.48528 9.51472 11.5 12 11.5C14.4853 11.5 16.5 9.48528 16.5 7C16.5 4.51472 14.4853 2.5 12 2.5ZM6.5 7C6.5 3.96243 8.96243 1.5 12 1.5C15.0376 1.5 17.5 3.96243 17.5 7C17.5 10.0376 15.0376 12.5 12 12.5C8.96243 12.5 6.5 10.0376 6.5 7Z" fill="black"/>
<path fill-rule="evenodd" clip-rule="evenodd" d="M12 14.5C7.85786 14.5 4.5 17.8579 4.5 22C4.5 22.2761 4.27614 22.5 4 22.5C3.72386 22.5 3.5 22.2761 3.5 22C3.5 17.3056 7.30558 13.5 12 13.5C16.6944 13.5 20.5 17.3056 20.5 22C20.5 22.2761 20.2761 22.5 20 22.5C19.7239 22.5 19.5 22.2761 19.5 22C19.5 17.8579 16.1421 14.5 12 14.5Z" fill="black"/>
</svg>
